<svg xmlns="http://www.w3.org/2000/svg" width="100" height="100" viewBox="0 0 100 100"><path fill="#EDEDED" d="M50 0c27.614 0 50 22.386 50 50s-22.386 50-50 50-50-22.386-50-50 22.386-50 50-50z"/><path fill="#CCD0D2" d="M49 18h2v-17.975l-1-.025-1 .025v17.975z"/><path fill="#D9B24C" d="M50 69c3.313 0 6 2.687 6 6 0 3.314-2.687 6-6 6s-6-2.686-6-6c0-3.313 2.687-6 6-6z"/><path fill="#E8C362" d="M50 17c-2.209 0-4 1.791-4 4s1.791 4 4 4 4-1.791 4-4-1.791-4-4-4zm0 6c-1.104 0-2-.896-2-2s.896-2 2-2 2 .896 2 2-.896 2-2 2z"/><path fill="#EFC75E" d="M72 61v-17.191c0-12.045-9.85-21.809-22-21.809s-22 9.764-22 21.808v17.192c-3.866 0-7 3.134-7 7s3.134 7 7 7h44c3.866 0 7-3.134 7-7s-3.134-7-7-7z"/><path fill="#E1BB58" d="M50 22c-12.15 0-22 9.764-22 21.808v17.192h22v-39z"/><path fill="#E8C15B" d="M79 68c0-3.866-3.134-7-7-7h-44c-3.866 0-7 3.134-7 7s3.134 7 7 7h44c3.866 0 7-3.134 7-7z"/><path fill="#CCA848" d="M55.651 77c.222-.626.349-1.298.349-2h-12c0 .702.127 1.374.349 2h11.302z"/><g fill="#DBDEE0"><path d="M51 4l-2 1v2l2-1zM49 11l2-1v-2l-2 1zM50.952.024l-1.952.976v2l2-1v-1.975l-.048-.001zM51 12l-2 1v2l2-1z"/></g></svg>