<svg xmlns="http://www.w3.org/2000/svg" width="100" height="100" viewBox="0 0 100 100"><path fill="#324D5B" d="M50 0c27.614 0 50 22.386 50 50s-22.386 50-50 50-50-22.386-50-50 22.386-50 50-50z"/><path fill="#283E49" d="M50 28c12.15 0 22 9.85 22 22s-9.85 22-22 22-22-9.85-22-22 9.85-22 22-22z"/><path fill="#2295BC" d="M47.545 65.687l-12.827-20.516.012-.014c-.444-.546-.719-1.308-.719-2.138 0-1.672 1.095-3.034 2.444-3.034h27.097c1.35 0 2.439 1.358 2.439 3.034 0 .719-.203 1.382-.541 1.899l-.368.458-12.673 20.329c-.496.812-1.297 1.293-2.425 1.293-1.274 0-1.89-.48-2.439-1.311z"/><path fill="#EBEDEE" d="M47.361 47.007c-.234 0-.441.091-.559.249l-1.298 1.734-1.297-1.734c-.117-.158-.324-.249-.559-.249-.378 0-.648.273-.648.605 0 .133.045.266.126.373l1.703 2.208v2.215c0 .308.197.606.675.606s.676-.299.676-.606v-2.215l1.703-2.208c.081-.107.126-.24.126-.373.001-.332-.27-.605-.648-.605zm4.115 4.826h-1.366v-1.282h1.21c.354 0 .539-.295.539-.582 0-.295-.177-.582-.539-.582h-1.21v-1.231h1.299c.347 0 .524-.295.524-.582 0-.295-.17-.582-.524-.582h-1.83c-.392 0-.576.312-.576.734v4.639c0 .38.244.633.568.633h1.904c.347 0 .524-.295.524-.582.001-.296-.169-.583-.523-.583zm2.846-3.137c0-.344.314-.531.661-.531.483 0 .741.245 1.072.245.33 0 .54-.286.54-.604 0-.645-1.129-.816-1.58-.816-1.071 0-1.998.71-1.998 1.854 0 1.895 2.691 1.314 2.691 2.278 0 .4-.29.702-.822.702-.523 0-.975-.318-1.354-.318-.33 0-.54.262-.54.58 0 .768 1.338.914 1.958.914 1.112 0 2.063-.727 2.063-1.895.002-2.107-2.691-1.568-2.691-2.409z"/><path fill="#233741" d="M50 28c12.15 0 22 9.85 22 22s-9.85 22-22 22-22-9.85-22-22 9.85-22 22-22m0-2.5c-13.509 0-24.5 10.991-24.5 24.5 0 13.51 10.991 24.5 24.5 24.5 13.51 0 24.5-10.99 24.5-24.5 0-13.509-10.99-24.5-24.5-24.5z"/><path fill="#2F4856" d="M56 93c-27.614 0-50-22.386-50-50 0-10.765 3.413-20.726 9.2-28.885-9.369 9.088-15.2 21.802-15.2 35.885 0 27.614 22.386 50 50 50 16.85 0 31.741-8.344 40.8-21.115-9.002 8.731-21.269 14.115-34.8 14.115z"/></svg>