<svg xmlns="http://www.w3.org/2000/svg" width="100" height="100" viewBox="0 0 100 100"><path fill="#E2574C" d="M50 .001c-27.614 0-50 22.386-50 50 0 27.616 22.386 50 50 50s50-22.385 50-50c0-27.614-22.386-50-50-50z"/><path fill="#CB4E44" d="M50 100.002c13.044 0 24.918-4.999 33.82-13.181 8.181-8.902 13.18-20.775 13.18-33.819 0-9.524-2.664-18.425-7.286-26.001h-62.714c-3.313 0-6 2.687-6 6v57.72c8.181 5.836 18.185 9.281 29 9.281z"/><path fill="#E8B873" d="M50 100.002c-9.523 0-18.424-2.664-26-7.285v-62.717c0-3.313 2.687-6 6-6h62.714c4.622 7.577 7.286 16.478 7.286 26.001 0 27.616-22.386 50.001-50 50.001z"/><g fill="#F6C37A"><path d="M68.579 62.463c.12.195.329.304.542.304.113 0 .229-.03.332-.095.299-.184.393-.576.209-.876-2.33-3.808-7.623-10.896-13.753-19.105-4.348-5.824-9.358-12.534-13.727-18.691h-1.554c4.004 5.663 8.896 12.265 14.264 19.455 6.111 8.184 11.387 15.25 13.687 19.008zM52.65 27.401c3.297 5.223 6.542 14.162 7.496 18.048l-.393-.729c-3.207-6.126-9.185-15.26-12.848-20.72h-1.532c3.584 5.322 9.93 14.96 13.256 21.312 1.377 2.63 1.807 2.837 2.263 2.843.274.002.526-.144.665-.394.908-1.627-4.143-15.197-7.832-21.043-.516-.817-1.148-1.744-1.837-2.718h-1.558c.893 1.238 1.686 2.395 2.32 3.401zM33.774 24c5.739 7.294 8.774 14.237 7.069 16.804-1.166 1.756-4.639 1.655-10.045-.291-2.451-.882-4.712-1.992-6.799-3.248v1.48c1.971 1.139 4.092 2.147 6.369 2.967 2.961 1.066 5.398 1.599 7.301 1.599 2.02 0 3.436-.601 4.232-1.801 2.283-3.439-1.341-10.754-6.512-17.51h-1.615zM88.179 46.731c-3.596-8.528-8.607-16.178-14.246-22.731h-1.68c5.849 6.636 11.059 14.459 14.755 23.227 3.834 9.097 5.239 18.433 6.432 27.521.357-.624.7-1.257 1.029-1.897-1.162-8.625-2.637-17.452-6.29-26.12zM39.684 45.946c-.119.331.051.695.381.816.089.032 1.402.501 2.91.501.975 0 2.029-.196 2.887-.832 1.193-.886 1.743-2.402 1.635-4.509-.018-.352-.318-.62-.667-.604-.351.018-.62.317-.602.669.085 1.651-.292 2.801-1.12 3.416-1.633 1.216-4.58.171-4.609.159-.331-.117-.695.054-.815.384zM24.838 27.213c.117-.142.16-.318.138-.487-.137.209-.258.429-.368.655.086-.038.166-.09.23-.168zM29.219 31.508c-.009.009-.963.698-5.129-2.505-.055.325-.09.657-.09.997v.529c3.155 2.305 5.231 2.917 6.182 1.811 1.213-1.413-.606-4.768-3.262-7.481-.368.221-.711.479-1.022.772 2.827 2.81 3.73 5.4 3.321 5.877zM35.346 36.019c-.142.099-1.021.247-3.141-.355-2.068-.587-5.024-1.849-8.205-3.843v1.487c3.629 2.189 6.964 3.461 9.129 3.893.62.124 1.154.186 1.603.186.692 0 1.185-.147 1.489-.443.553-.537.844-1.292.844-2.186 0-2.504-2.241-6.191-6.505-10.755h-.56c-.375 0-.74.039-1.096.104 5.928 6.147 6.89 9.285 6.89 10.651 0 .546-.153.973-.448 1.261zM58.344 94.615c-.689-1.103-1.44-1.621-2.234-1.543-.84.084-1.524.814-2.036 2.172-.436 1.154-.727 2.764-.854 4.644.431-.027.86-.06 1.288-.098.118-1.665.374-3.086.754-4.095.363-.965.752-1.332.973-1.354.197-.021.574.22 1.033.952.594.951 1.274 2.276 1.993 3.839.426-.08.852-.161 1.273-.251-.809-1.785-1.56-3.26-2.19-4.266zM72.732 53.814c-2.409-8.25-6.363-16.054-9.539-22.326-1.39-2.744-2.696-5.324-3.627-7.488h-1.379c.922 2.234 2.282 4.926 3.873 8.066 3.152 6.224 7.076 13.97 9.452 22.105 2.234 7.648 7.708 19.451 13.834 31.193.313-.313.613-.641.919-.962-6.001-11.533-11.34-23.078-13.533-30.588zM63.455 92.707c-2.154-4.361-4.381-6.638-6.617-6.764-1.075-.057-2.682.371-4.219 2.768-1.646 2.567-2.798 6.746-3.237 11.28l.506.009h.189l.601-.016c.421-4.271 1.482-8.2 3.011-10.584.665-1.037 1.729-2.27 3.079-2.184 1.201.066 3.137 1.172 5.549 6.057.729 1.475 1.423 3.028 2.1 4.609.41-.123.815-.255 1.221-.389-.702-1.637-1.423-3.248-2.183-4.786zM87.41 79.424c-5.734-7.742-8.683-19.804-10.836-28.611-.947-3.879-1.696-6.944-2.479-8.845-1.392-3.38-6.217-14.623-9.906-17.382-.281-.21-.679-.152-.889.13-.21.283-.152.681.129.892 2.725 2.037 6.689 10.038 9.49 16.847.746 1.812 1.522 4.987 2.421 8.664 2.179 8.912 5.161 21.119 11.05 29.067.517.697 1.133 1.471 1.786 2.091.275-.326.546-.654.813-.987-.418-.409-.936-.998-1.579-1.866zM71.264 47.36c.05.314.32.538.627.538l.101-.008c.347-.055.583-.381.528-.729-1.162-7.337-8.107-18.561-8.402-19.034-.186-.299-.578-.39-.875-.203-.298.187-.389.579-.203.878.071.112 7.103 11.473 8.224 18.558zM68.876 95.139c-3.7-10.66-5.558-16.012-11.228-14.549-6.393 1.648-11.475 10.399-13.217 19.102.418.046.839.084 1.26.12 1.652-8.24 6.359-16.462 12.273-17.987 4.332-1.116 5.781 2.412 9.711 13.732l.373 1.073c.396-.153.793-.304 1.185-.467l-.357-1.024zM84.982 53.58c-1.857-8.742-11.712-21.333-12.131-21.865-.217-.276-.616-.324-.893-.105-.275.218-.322.619-.104.895.101.127 10.089 12.887 11.885 21.341.421 1.984.98 4.38 1.573 6.918 1.235 5.291 3.042 13.031 2.99 15.283-2.744-3.25-8.84-18.994-8.618-26.805l.001-.004c.871 2.604 2.26 8.587 3.359 14.139.068.345.401.567.746.501.345-.068.568-.404.5-.75-3.261-16.473-4.307-16.39-4.929-16.333-.815.068-.911 1.132-.948 2.411-.24 8.456 6.374 25.111 9.189 27.96.372.377.694.499.954.499.163 0 .301-.048.412-.108 1.142-.635.712-3.668-2.421-17.084-.588-2.532-1.147-4.922-1.565-6.893zM87.046 51.561c-2.858-9.313-10.815-20.448-17.784-27.561h-1.841c6.869 6.746 15.392 18.099 18.41 27.935 2.017 6.568 3.758 13.936 4.659 19.705.462 2.953.648 5.14.673 6.735.411-.595.807-1.2 1.192-1.814-.098-1.39-.29-3.072-.609-5.118-.91-5.826-2.668-13.259-4.7-19.882zM29.252 75.355c2.838-.06 5.41-2.132 6.555-5.279.742-2.041.715-3.68-.085-5.01-1.458-2.426-5.298-3.408-10.615-4.137-.399-.055-.764-.075-1.106-.074v1.278c.294-.001.601.012.935.058 4.288.588 8.431 1.423 9.698 3.532.59.979.583 2.261-.02 3.915-1.171 3.221-3.635 4.406-5.389 4.442-1.698.052-3.059-.872-3.725-2.491-.729-1.77-.724-3.2.015-3.925.753-.738 2.216-.733 3.913.011.86.378 1.357.853 1.398 1.336.036.415-.264.897-.764 1.229-.486.324-1.043.419-1.383.239-.311-.166-.695-.047-.859.266-.164.311-.046.695.264.861.763.404 1.79.289 2.681-.304.896-.595 1.404-1.515 1.328-2.401-.06-.687-.481-1.659-2.155-2.394-2.189-.962-4.176-.87-5.312.245-.211.207-.442.52-.626.932v3.458c.089.297.189.602.325.933.864 2.101 2.7 3.321 4.927 3.28zM83.265 85.246c-1.979-4.125-3.849-8.021-5.504-11.076-3.282-6.057-5.241-10.929-7.95-17.672-2.455-6.109-5.511-13.711-10.733-25.213-1.188-2.615-2.427-5.036-3.69-7.284h-1.461c1.368 2.391 2.711 4.985 3.994 7.812 5.212 11.476 8.262 19.064 10.712 25.162 2.726 6.783 4.694 11.684 8.013 17.805 1.641 3.025 3.503 6.908 5.475 11.02l.854 1.774c.332-.291.662-.584.986-.884l-.696-1.444zM38.577 24.057l-.043-.057h-1.599l.631.83c14.922 19.606 32.016 42.082 43.005 64.723.344-.266.688-.53 1.023-.804-11.048-22.674-28.113-45.107-43.017-64.692zM56.547 67.213c-.29-.197-.686-.121-.883.17s-.121.688.168.885c.081.056 7.155 5.081 17.326 26.046.376-.197.751-.396 1.122-.604-10.278-21.207-17.391-26.265-17.733-26.497zM68.521 73.17c-11.717-18.121-23.625-22.328-34.13-26.04-3.546-1.253-7.022-2.49-10.391-4.211v1.437c3.24 1.591 6.573 2.776 9.969 3.976 10.818 3.822 22.004 7.773 33.487 25.531 4.066 6.289 7.31 12.309 9.922 17.97.36-.236.718-.476 1.071-.721-2.604-5.615-5.849-11.637-9.928-17.942zM99.856 46.234c-4.788-4.764-9.497-10.56-13.788-18.179-.787-1.398-1.631-2.749-2.51-4.055h-1.535c1.038 1.498 2.024 3.059 2.938 4.682 4.664 8.282 9.804 14.44 15.002 19.448-.023-.634-.06-1.266-.107-1.896zM95.992 30.374c-1.95-2.164-3.492-4.286-4.822-6.374h-1.505c1.456 2.355 3.16 4.76 5.385 7.228.811.899 1.533 1.677 2.184 2.353-.379-1.086-.793-2.156-1.242-3.207zM93.516 32.512l-1.365-1.569c-2.036-2.339-3.566-4.658-4.888-6.942h-1.466c1.436 2.545 3.099 5.141 5.396 7.78l1.365 1.568c2.208 2.54 4.432 5.093 6.603 7.515-.156-.847-.335-1.686-.533-2.517-1.692-1.913-3.404-3.871-5.112-5.835zM93.098 49.687c-3.452-8.163-7.277-17.208-13.354-25.687h-1.584c6.314 8.583 10.243 17.848 13.768 26.184 2.086 4.933 4.01 9.452 6.194 13.384.169-.601.328-1.204.476-1.813-1.899-3.596-3.635-7.659-5.5-12.068zM32.638 91.945c.311 0 .582-.229.628-.546.051-.349-.189-.673-.537-.723-3.138-.458-6.45-2.584-8.729-4.336v1.6c2.338 1.704 5.469 3.549 8.546 3.997l.092.008zM34.561 87.88c.281 0 .539-.188.614-.474.09-.34-.112-.689-.451-.779-3.755-1.001-7.507-2.304-10.724-4.628v1.561c3.181 2.102 6.788 3.337 10.397 4.299l.164.021zM44.441 90.871c7.557-9.182 12.465-16.818 12.514-16.895.189-.297.104-.691-.191-.881s-.688-.104-.878.192c-.048.075-4.919 7.653-12.425 16.772-1.865 2.266-3.132 5.323-3.781 8.873.428.09.859.172 1.291.25.62-3.416 1.807-6.29 3.47-8.311zM26.675 78.25c2.916 2.43 6.256 2.678 9.406.697 4.313-2.711 7.004-8.877 5.876-13.465-1.072-4.355-7.138-7.021-12.006-7.979-1.857-.365-3.983-.574-5.951-.468v1.278c1.678-.104 3.638.033 5.706.44 4.502.887 10.089 3.26 11.017 7.033.992 4.032-1.492 9.677-5.316 12.08-1.873 1.178-4.768 2.029-7.92-.597-1.368-1.14-2.53-2.405-3.486-3.703v2.029c.805.948 1.701 1.844 2.674 2.655zM45.371 82.346c4.944-4.344 9.614-8.446 7.027-15.389-4.234-11.358-15.543-15.096-23.025-17.569-2.136-.706-4.02-1.332-5.373-1.999v1.406c1.362.607 3.072 1.174 4.975 1.803 7.687 2.54 18.213 6.019 22.232 16.804 2.281 6.119-1.671 9.59-6.674 13.984-4.399 3.865-9.515 8.412-10.89 15.87.399.139.798.274 1.202.403 1.229-7.095 6.07-11.398 10.526-15.313zM45.801 68.658c.086-11.083-11.204-13.51-17.949-14.96-.848-.183-1.648-.354-2.355-.526-.471-.114-.976-.354-1.496-.657v1.432c.409.201.812.37 1.196.464.725.177 1.532.35 2.389.534 6.778 1.458 17.022 3.659 16.946 13.704-.054 6.904-3.758 10.215-5.962 11.573-3.323 2.05-7.509 2.358-10.665.787-1.39-.692-2.71-1.874-3.904-3.322v1.896c1.047 1.093 2.17 1.985 3.34 2.568 1.513.754 3.231 1.123 4.992 1.123 2.357 0 4.791-.664 6.902-1.966 2.427-1.497 6.509-5.13 6.566-12.65zM24 91.787v.93c.388.236.781.464 1.176.69-.39-.563-.782-1.102-1.176-1.62z"/></g><path fill="#D3A769" d="M40 29c6.627 0 12 5.373 12 12 0 6.628-5.373 12-12 12s-12-5.372-12-12c0-6.626 5.373-12 12-12z"/><g fill="#E8B873"><path d="M38.534 52.901c-1.973-.946-3.947-1.715-5.812-2.375 1.654 1.265 3.641 2.111 5.812 2.375zM28.71 45.035c.204.571.438 1.126.723 1.653 1.498.57 3.011 1.105 4.536 1.644 3.323 1.174 6.68 2.361 10.07 3.956.523-.187 1.032-.403 1.519-.658-3.843-1.911-7.586-3.234-11.167-4.5-1.916-.677-3.811-1.351-5.681-2.095zM50.85 35.899c-.921-1.242-1.849-2.497-2.773-3.755-.903-.825-1.93-1.512-3.054-2.031 2.137 2.934 4.439 6.048 6.862 9.306-.165-1.245-.52-2.426-1.035-3.52zM35.794 34.756c0 .548-.153.976-.448 1.263-.142.099-1.021.247-3.141-.355-.72-.205-1.556-.498-2.463-.867-.219.361-.419.734-.6 1.119 1.542.636 2.914 1.07 3.987 1.284.62.124 1.154.186 1.603.186.692 0 1.185-.147 1.489-.443.553-.537.844-1.292.844-2.186 0-1.296-.6-2.909-1.769-4.796-.392.167-.771.359-1.141.565 1.33 2.12 1.639 3.458 1.639 4.23zM42.545 29.277c-.578-.125-1.172-.199-1.778-.238 3.592 4.729 7.272 9.61 10.932 14.603.131-.585.216-1.187.258-1.801-3.151-4.283-6.311-8.477-9.412-12.564zM37.494 29.267c3.224 5.182 4.635 9.604 3.35 11.538-1.166 1.756-4.639 1.655-10.045-.291-.923-.332-1.812-.705-2.683-1.097-.059.443-.095.892-.104 1.348.769.335 1.55.658 2.357.948 2.961 1.066 5.398 1.599 7.301 1.599 2.02 0 3.436-.601 4.232-1.801 1.717-2.587.084-7.369-3.026-12.454-.469.044-.93.114-1.382.21zM46.829 41.319c-.351.018-.62.317-.602.669.085 1.651-.292 2.801-1.12 3.416-1.633 1.216-4.58.171-4.609.159-.33-.118-.694.053-.814.383-.119.331.051.695.381.816.089.032 1.402.501 2.91.501.975 0 2.029-.196 2.887-.832 1.193-.886 1.743-2.402 1.635-4.509-.018-.351-.319-.62-.668-.603z"/></g><path fill="#F2F1EF" d="M40 28c6.627 0 12 5.373 12 12 0 6.628-5.373 12-12 12s-12-5.372-12-12c0-6.626 5.373-12 12-12z"/><path fill="#37A18E" d="M39 39v59.773c3.517.789 7.169 1.221 10.923 1.227h.154c27.579-.042 49.923-22.408 49.923-49.999 0-3.782-.434-7.459-1.229-11.001h-59.771z"/><path fill="#3DB39E" d="M43 99.504c2.289.32 4.623.498 7 .498 27.614 0 50-22.385 50-50 0-2.377-.178-4.712-.498-7.001h-56.502v56.503z"/><path fill="#37A18E" d="M56.5 53c3.59 0 6.5 2.91 6.5 6.5s-2.91 6.5-6.5 6.5-6.5-2.91-6.5-6.5 2.91-6.5 6.5-6.5zM78.5 51c3.59 0 6.5 2.91 6.5 6.5s-2.91 6.5-6.5 6.5-6.5-2.91-6.5-6.5 2.91-6.5 6.5-6.5zM63.5 74c3.59 0 6.5 2.91 6.5 6.5s-2.91 6.5-6.5 6.5-6.5-2.91-6.5-6.5 2.91-6.5 6.5-6.5z"/><path fill="#2B414D" d="M40 31c4.971 0 9 4.029 9 9s-4.029 9-9 9-9-4.029-9-9 4.029-9 9-9z"/><path fill="#EFC75E" d="M58.5 51c3.59 0 6.5 2.91 6.5 6.5s-2.91 6.5-6.5 6.5-6.5-2.91-6.5-6.5 2.91-6.5 6.5-6.5z"/><path fill="#324D5B" d="M80.5 49c3.59 0 6.5 2.91 6.5 6.5s-2.91 6.5-6.5 6.5-6.5-2.91-6.5-6.5 2.91-6.5 6.5-6.5z"/><path fill="#EDEDED" d="M65.5 72c3.59 0 6.5 2.91 6.5 6.5s-2.91 6.5-6.5 6.5-6.5-2.91-6.5-6.5 2.91-6.5 6.5-6.5z"/><path fill="#D7B354" d="M60.5 62c-3.59 0-6.5-2.91-6.5-6.5 0-1.282.377-2.475 1.018-3.482-1.813 1.153-3.018 3.174-3.018 5.482 0 3.59 2.91 6.5 6.5 6.5 2.308 0 4.329-1.205 5.482-3.018-1.007.641-2.2 1.018-3.482 1.018z"/><path fill="#273A45" d="M82.5 60c-3.59 0-6.5-2.91-6.5-6.5 0-1.282.377-2.475 1.018-3.482-1.813 1.154-3.018 3.174-3.018 5.482 0 3.59 2.91 6.5 6.5 6.5 2.308 0 4.329-1.205 5.482-3.018-1.007.641-2.2 1.018-3.482 1.018z"/><path fill="#D5D5D5" d="M67.5 83c-3.59 0-6.5-2.91-6.5-6.5 0-1.282.377-2.475 1.018-3.482-1.813 1.153-3.018 3.174-3.018 5.482 0 3.59 2.91 6.5 6.5 6.5 2.308 0 4.329-1.205 5.482-3.018-1.007.641-2.2 1.018-3.482 1.018z"/><path fill="#273A45" d="M40 31c-2.996 0-5.643 1.47-7.279 3.721 1.484-1.077 3.304-1.721 5.279-1.721 4.971 0 9 4.029 9 9 0 1.975-.644 3.795-1.722 5.279 2.252-1.635 3.722-4.282 3.722-7.279 0-4.97-4.029-9-9-9z"/></svg>