<svg xmlns="http://www.w3.org/2000/svg" width="100" height="100" viewBox="0 0 100 100"><path fill="#EFC75E" d="M50 0c27.614 0 50 22.386 50 50s-22.386 50-50 50-50-22.386-50-50 22.386-50 50-50z"/><path fill="#A86A3F" d="M26 27h46c2.762 0 5 2.239 5 5v6c0 2.762-2.238 5-5 5h-46c-2.762 0-5-2.238-5-5v-6c0-2.761 2.238-5 5-5z"/><path fill="#975F39" d="M72 27h-46c-2.762 0-5 2.239-5 5v2c0-2.761 2.238-5 5-5h46c2.762 0 5 2.239 5 5v-2c0-2.761-2.238-5-5-5z"/><path fill="#3DB39E" d="M35.963 31.367l31.302-8.3c1.072-.284 2.175.345 2.462 1.406l5.203 19.212c.287 1.061-.35 2.152-1.422 2.436l-40.773 10.812c-1.072.284-2.175-.345-2.462-1.406l-3.822-14.113 9.512-10.047z"/><path fill="#78CABB" d="M69.457 43.068l-6.762 1.812c-.533.143-1.081-.173-1.225-.707-.143-.533.174-1.082.707-1.225l5.796-1.553-3.105-11.591-5.796 1.553c-.533.143-1.082-.174-1.225-.707s.174-1.082.707-1.225l6.762-1.812c.533-.144 1.081.173 1.225.707l3.623 13.522c.144.535-.174 1.084-.707 1.226zm-28.012 7.506l-6.762 1.812c-.533.143-1.081-.174-1.225-.707l-3.623-13.523c-.144-.533.174-1.082.707-1.225l6.762-1.812c.533-.143 1.081.173 1.225.708.143.533-.174 1.081-.707 1.225l-5.796 1.553 3.105 11.591 5.796-1.553c.533-.143 1.082.174 1.225.707.144.533-.173 1.082-.707 1.224z"/><path fill="#5ABEAC" d="M21.292 38.125c8.909-5.112 33.002-18.949 33.002-18.949.962-.552 2.19-.229 2.742.721l9.998 17.211c.552.951.22 2.169-.743 2.721l-36.585 20.995c-.962.553-2.189.229-2.742-.721 0 0-2.864-5.895-5.672-10.729v-11.249z"/><path fill="#8CD2C5" d="M35.474 50.696l-5.196 3-6-10.393 5.196-3c.479-.276.643-.888.366-1.366s-.888-.642-1.366-.366l-6.062 3.5c-.478.276-.642.888-.365 1.365l7 12.125c.275.479.888.643 1.365.365l6.062-3.5c.479-.275.643-.887.366-1.365s-.888-.641-1.366-.365zm26.48-14.134l-7-12.125c-.275-.478-.888-.642-1.365-.366l-6.062 3.5c-.479.276-.643.888-.366 1.366s.888.642 1.366.366l5.196-3 6 10.393-5.196 3c-.479.276-.643.888-.366 1.366s.888.642 1.366.366l6.062-3.5c.477-.276.641-.887.365-1.366zm-23.954-3.49c-3.826 2.209-5.138 7.102-2.928 10.928 2.209 3.826 7.102 5.138 10.928 2.928 3.826-2.209 5.138-7.102 2.928-10.928-2.209-3.826-7.102-5.137-10.928-2.928z"/><path fill="#C47E4D" d="M74 36h-49c-2.209 0-4-1.791-4-4v36c0 2.762 2.238 5 5 5h48c2.762 0 5-2.238 5-5v-27c0-2.761-2.238-5-5-5z"/><path fill="#A86A3F" d="M79 62h-8c-3.866 0-7-3.134-7-7s3.134-7 7-7h8c1.104 0 2 .896 2 2v10c0 1.105-.896 2-2 2z"/><path fill="#ECC35D" d="M71 51c2.209 0 4 1.791 4 4s-1.791 4-4 4-4-1.791-4-4 1.791-4 4-4z"/><path fill="#CA8B5F" d="M74 36h-49c-2.209 0-4-1.791-4-4v2c0 2.209 1.791 4 4 4h49c2.762 0 5 2.239 5 5v-2c0-2.761-2.238-5-5-5z"/><path fill="#B27245" d="M74 71h-48c-2.762 0-5-2.238-5-5v2c0 2.762 2.238 5 5 5h48c2.762 0 5-2.238 5-5v-2c0 2.762-2.238 5-5 5z"/></svg>